HIERARCHY
ROOT Hips
{
	OFFSET 0.00000 0.00000 0.00000
	CHANNELS 6 Xposition Yposition Zposition Zrotation Yrotation Xrotation 
	JOINT LHipJoint
	{
		OFFSET 0 0 0
		CHANNELS 3 Zrotation Yrotation Xrotation
		JOINT LeftUpLeg
		{
			OFFSET 1.57358 -1.76629 0.73362
			CHANNELS 3 Zrotation Yrotation Xrotation
			JOINT LeftLeg
			{
				OFFSET 2.40600 -6.61045 0.00000
				CHANNELS 3 Zrotation Yrotation Xrotation
				JOINT LeftFoot
				{
					OFFSET 2.66168 -7.31291 0.00000
					CHANNELS 3 Zrotation Yrotation Xrotation
					JOINT LeftToeBase
					{
						OFFSET 0.20870 -0.57341 2.12506
						CHANNELS 3 Zrotation Yrotation Xrotation
						End Site
						{
							OFFSET 0.00000 -0.00000 1.10557
						}
					}
				}
			}
		}
	}
	JOINT RHipJoint
	{
		OFFSET 0 0 0
		CHANNELS 3 Zrotation Yrotation Xrotation
		JOINT RightUpLeg
		{
			OFFSET -1.49299 -1.76629 0.73362
			CHANNELS 3 Zrotation Yrotation Xrotation
			JOINT RightLeg
			{
				OFFSET -2.43663 -6.69460 0.00000
				CHANNELS 3 Zrotation Yrotation Xrotation
				JOINT RightFoot
				{
					OFFSET -2.62959 -7.22474 0.00000
					CHANNELS 3 Zrotation Yrotation Xrotation
					JOINT RightToeBase
					{
						OFFSET -0.25784 -0.70841 2.21862
						CHANNELS 3 Zrotation Yrotation Xrotation
						End Site
						{
							OFFSET -0.00000 -0.00000 1.16452
						}
					}
				}
			}
		}
	}
	JOINT LowerBack
	{
		OFFSET 0 0 0
		CHANNELS 3 Zrotation Yrotation Xrotation
		JOINT Spine
		{
			OFFSET -0.00034 2.12399 -0.25450
			CHANNELS 3 Zrotation Yrotation Xrotation
			JOINT Spine1
			{
				OFFSET 0.05594 2.14379 -0.03318
				CHANNELS 3 Zrotation Yrotation Xrotation
				JOINT Neck
				{
					OFFSET 0 0 0
					CHANNELS 3 Zrotation Yrotation Xrotation
					JOINT Neck1
					{
						OFFSET -0.09835 1.62725 0.24211
						CHANNELS 3 Zrotation Yrotation Xrotation
						JOINT Head
						{
							OFFSET 0.10849 1.66041 -0.22648
							CHANNELS 3 Zrotation Yrotation Xrotation
							End Site
							{
								OFFSET 0.04385 1.68267 -0.10541
							}
						}
					}
				}
				JOINT LeftShoulder
				{
					OFFSET 0 0 0
					CHANNELS 3 Zrotation Yrotation Xrotation
					JOINT LeftArm
					{
						OFFSET 3.29108 0.79398 -0.68179
						CHANNELS 3 Zrotation Yrotation Xrotation
						JOINT LeftForeArm
						{
							OFFSET 5.15310 -0.00000 -0.00000
							CHANNELS 3 Zrotation Yrotation Xrotation
							JOINT LeftHand
							{
								OFFSET 3.75138 -0.00000 -0.00000
								CHANNELS 3 Zrotation Yrotation Xrotation
								JOINT LeftFingerBase
								{
									OFFSET 0 0 0
									CHANNELS 3 Zrotation Yrotation Xrotation
									JOINT LeftHandIndex1
									{
										OFFSET 0.52917 -0.00000 0.00000
										CHANNELS 3 Zrotation Yrotation Xrotation
										End Site
										{
											OFFSET 0.42663 -0.00000 0.00000
										}
									}
								}
								JOINT LThumb
								{
									OFFSET 0 0 0
									CHANNELS 3 Zrotation Yrotation Xrotation
									End Site
									{
										OFFSET 0.43315 -0.00000 0.43315
									}
								}
							}
						}
					}
				}
				JOINT RightShoulder
				{
					OFFSET 0 0 0
					CHANNELS 3 Zrotation Yrotation Xrotation
					JOINT RightArm
					{
						OFFSET -3.07414 1.06285 -0.44338
						CHANNELS 3 Zrotation Yrotation Xrotation
						JOINT RightForeArm
						{
							OFFSET -5.29613 -0.00000 0.00000
							CHANNELS 3 Zrotation Yrotation Xrotation
							JOINT RightHand
							{
								OFFSET -3.76144 -0.00000 -0.00000
								CHANNELS 3 Zrotation Yrotation Xrotation
								JOINT RightFingerBase
								{
									OFFSET 0 0 0
									CHANNELS 3 Zrotation Yrotation Xrotation
									JOINT RightHandIndex1
									{
										OFFSET -0.74732 -0.00000 0.00000
										CHANNELS 3 Zrotation Yrotation Xrotation
										End Site
										{
											OFFSET -0.60251 -0.00000 0.00000
										}
									}
								}
								JOINT RThumb
								{
									OFFSET 0 0 0
									CHANNELS 3 Zrotation Yrotation Xrotation
									End Site
									{
										OFFSET -0.61171 -0.00000 0.61171
									}
								}
							}
						}
					}
				}
			}
		}
	}
}
MOTION
Frames: 13
Frame Time: .0083333
14.1842 16.9698 -31.4831 0 0 0 0 0 0 -21 0 0 0 0 0 0 0 0 0 0 0 0 0 0 21 0 0 0 0 0 0 0 0 0 0 0 0 0 0 0 0 0 0 0 0 0 0 -16 0 0 21 0 0 11 0 0 0 -8 0 0 0 0 0 0 0 0 0 0 0 0 0 0 0 0 0 0 0 0 8 0 0 0 0 0 0 0 0 0 0 0 0 0 0 0 0 0
14.1842 16.9698 -31.4831 1.0777 -2.7466 -1.5405 0.0000 0.0000 0.0000 -21.3634 -1.3420 2.7331 14.3298 19.2110 73.2092 1.1974 0.9360 20.4017 0.5028 4.5456 12.6170 0.0000 0.0000 0.0000 24.1348 8.7952 -24.4017 -4.7315 -13.0749 39.6494 -0.1224 -6.8900 -12.3330 -0.0034 -0.3784 1.0396 -1.1767 -0.3047 11.6935 3.0716 -0.3654 0.2516 3.9711 -0.0968 -6.2784 -8.9826 -2.6838 -15.8798 4.3022 -2.3353 16.5725 2.6378 -1.2613 7.9030 -0.0000 0.0000 0.0000 -90.7788 11.1739 39.1498 116.4507 -57.1839 -82.6904 -0.0000 0.0000 -15.5990 19.0827 5.6296 1.9437 -7.1250 0.0000 -0.0000 -6.3814 35.8732 1.4388 -0.0000 0.0000 0.0000 81.5399 -22.2281 40.5300 -138.3040 49.0432 -100.2893 0.0000 -0.0000 -11.5827 -5.8058 21.9920 -2.1806 7.1250 -0.0000 -0.0000 14.4469 -8.4389 12.5881
14.1766 16.9026 -31.1066 0.1475 -2.7124 -1.7010 0.0000 0.0000 0.0000 -19.5636 -1.5249 0.3484 15.5182 19.5114 76.7927 0.9322 0.3500 18.1374 0.2433 3.1745 8.7649 0.0000 0.0000 0.0000 25.2977 8.6631 -23.7584 -5.1682 -13.5707 41.5442 -0.2246 -7.1593 -14.2900 -0.0003 0.1057 -0.2904 -0.1131 -0.2268 11.9263 3.2096 -0.1171 0.6688 3.4669 -0.0116 -5.9880 -8.8171 -2.8939 -17.3121 4.3527 -2.5478 17.1502 2.6013 -1.3395 8.3620 0.0000 0.0000 0.0000 -91.1185 10.5814 38.8603 114.2498 -57.6570 -80.8357 -0.0000 0.0000 -16.8101 19.3151 6.0628 2.1200 -7.1250 0.0000 -0.0000 -6.2372 36.3407 1.3344 0.0000 0.0000 0.0000 81.2230 -19.5295 40.6605 -136.7761 49.8681 -99.1282 0.0000 -0.0000 -12.4051 -6.0736 22.0942 -2.2918 7.1250 -0.0000 -0.0000 14.2801 -8.3183 12.4680
14.1690 16.8359 -30.7380 -0.7202 -2.6789 -1.7517 0.0000 0.0000 0.0000 -17.8149 -1.7181 -2.2579 16.6255 19.7248 80.0900 0.4722 -1.2245 13.4824 0.1612 -2.5870 -7.1310 0.0000 0.0000 0.0000 26.3770 8.5111 -23.0898 -5.5488 -13.9764 43.1430 -0.3375 -7.2948 -16.0001 -0.0086 0.5997 -1.6479 0.6052 -0.2587 12.0774 3.5423 -0.0435 0.8295 3.3991 0.0078 -5.9081 -8.9059 -2.7974 -17.8700 4.4860 -2.3726 17.5491 2.6855 -1.2489 8.5858 -0.0000 0.0000 0.0000 -91.8974 10.4453 38.0930 111.7352 -58.1375 -78.7055 -0.0000 0.0000 -17.9853 19.7272 6.5554 2.3443 -7.1250 0.0000 -0.0000 -5.9490 36.8828 1.1931 -0.0000 0.0000 0.0000 80.3055 -17.3002 41.3901 -135.2356 50.6525 -97.9436 0.0000 -0.0000 -13.2085 -6.7631 22.2738 -2.5737 7.1250 -0.0000 -0.0000 13.8521 -8.0864 12.1355
14.1637 16.7734 -30.3708 -1.2058 -2.3589 -1.7127 0.0000 0.0000 0.0000 -16.5871 -2.2362 -4.9687 17.6380 19.8657 83.0792 0.3992 -1.3266 12.4911 0.1312 -2.3350 -6.4325 0.0000 0.0000 0.0000 26.9730 8.0748 -22.5121 -5.9041 -14.3348 44.5957 -0.4801 -7.0966 -17.5757 -0.0141 0.7657 -2.1043 0.9583 -0.3761 11.8592 3.7928 -0.1464 0.9095 3.4765 -0.0505 -5.6967 -8.9964 -2.8526 -17.3366 4.4407 -2.4554 16.9554 2.6702 -1.2953 8.2977 -0.0000 0.0000 0.0000 -92.7281 10.1509 37.2165 108.8346 -58.6162 -76.2354 -0.0000 0.0000 -19.4892 19.8502 7.4572 2.6826 -7.1250 0.0000 -0.0000 -5.9547 37.8412 1.0539 -0.0000 0.0000 0.0000 79.2881 -15.2261 42.1673 -133.5651 51.4524 -96.6443 0.0000 -0.0000 -13.8451 -7.4009 23.2871 -2.9397 7.1250 -0.0000 -0.0000 13.4597 -7.0426 12.0539
14.1581 16.7170 -30.0021 -1.3113 -1.9274 -1.6507 0.0000 0.0000 0.0000 -15.8106 -2.8258 -7.7491 18.5200 19.9474 85.6690 0.2915 -1.9747 11.1181 0.1312 -2.3347 -6.4316 0.0000 0.0000 0.0000 27.1658 7.5041 -21.8322 -6.1920 -14.6119 45.7475 -0.6254 -6.8999 -19.0200 -0.0074 0.5567 -1.5297 1.0132 -0.4440 11.4585 3.8473 -0.2419 0.9729 3.5095 -0.1004 -5.4009 -8.9374 -2.8937 -16.6949 4.3709 -2.5670 16.4947 2.6217 -1.3513 8.0367 -0.0000 -0.0000 0.0000 -93.1362 11.1645 36.4552 107.6507 -58.7895 -75.2238 -0.0000 0.0000 -21.4307 19.5058 7.4781 2.6396 -7.1250 0.0000 -0.0000 -6.2498 37.8403 1.1068 -0.0000 -0.0000 0.0000 78.5653 -13.1858 42.8211 -132.3213 52.0153 -95.6677 0.0000 -0.0000 -14.2922 -7.8926 22.9387 -3.0927 7.1250 -0.0000 -0.0000 13.1552 -7.3374 11.6878
14.1507 16.6643 -29.6373 -1.2574 -1.8921 -1.7275 0.0000 0.0000 0.0000 -15.2106 -2.9426 -10.3856 19.2481 19.9864 87.8010 0.4765 -0.8293 13.3661 0.1468 2.4690 6.8038 0.0000 0.0000 0.0000 27.2509 7.0229 -20.7842 -6.3963 -14.8017 46.5524 -0.7834 -6.7868 -20.5258 -0.0059 0.4942 -1.3580 0.8685 -0.2709 11.5339 3.8308 -0.0286 0.9711 3.5416 0.0083 -5.4562 -8.8525 -2.9762 -16.3533 4.3484 -2.7258 16.2776 2.5812 -1.4239 7.9141 -0.0000 0.0000 0.0000 -93.3493 11.8887 35.9377 106.5176 -58.9436 -74.2539 -0.0000 0.0000 -22.6937 18.1003 8.5664 2.7873 -7.1250 0.0000 -0.0000 -7.6025 38.8789 1.1543 -0.0000 0.0000 0.0000 78.0614 -11.6031 43.4113 -131.9078 52.1965 -95.3414 0.0000 -0.0000 -13.6143 -8.6508 20.0767 -2.9897 7.1250 -0.0000 -0.0000 12.6767 -10.0742 10.5318
14.1402 16.6226 -29.2766 -1.2942 -2.2716 -1.8643 0.0000 0.0000 0.0000 -14.4526 -2.5308 -13.0983 19.8263 19.9993 89.4922 0.1186 -2.2367 7.7323 0.5035 -4.5488 -12.6259 0.0000 0.0000 0.0000 27.5067 6.6819 -19.4446 -6.5139 -14.9085 47.0110 -0.9112 -6.9677 -21.8518 -0.0478 1.4105 -3.8790 0.7116 0.0806 11.8333 3.9207 0.4316 1.0016 3.6549 0.2406 -5.6186 -9.0443 -3.0582 -16.4618 4.5068 -2.8101 16.2507 2.6549 -1.4587 7.9354 -0.0000 -0.0000 0.0000 -93.5996 12.5432 35.9705 105.3655 -59.0888 -73.2662 -0.0000 0.0000 -23.0194 19.0423 9.6168 3.3000 -7.1250 0.0000 -0.0000 -6.9547 40.0478 0.8538 -0.0000 -0.0000 0.0000 77.4965 -10.4243 43.6447 -131.8878 52.2052 -95.3256 0.0000 -0.0000 -13.0698 -7.7692 19.1039 -2.5567 7.1250 -0.0000 -0.0000 13.2488 -11.0993 10.7493
14.1337 16.5976 -28.9131 -1.4947 -2.3692 -2.0562 0.0000 0.0000 0.0000 -13.5817 -2.3334 -15.8530 20.2641 19.9983 90.7723 0.0780 -2.5706 6.8706 0.4803 -4.4441 -12.3295 0.0000 0.0000 0.0000 27.9296 6.0385 -17.8743 -6.5104 -14.9053 46.9972 -1.0141 -7.2649 -22.9702 -0.1177 2.2115 -6.0906 0.7705 0.3128 12.0562 4.0810 0.7609 1.0938 3.7376 0.4028 -5.6670 -9.0721 -3.1084 -16.7002 4.4279 -2.8374 16.4963 2.6301 -1.4820 8.0609 0.0000 0.0000 0.0000 -93.8219 13.2240 36.3407 104.1515 -59.2296 -72.2238 -0.0000 0.0000 -22.1410 21.4298 9.2489 3.6096 -7.1250 0.0000 -0.0000 -4.8271 39.8577 0.6135 0.0000 0.0000 0.0000 76.9465 -9.4446 43.8332 -132.3107 52.0199 -95.6594 0.0000 -0.0000 -12.4110 -6.6513 19.5332 -2.2328 7.1250 -0.0000 -0.0000 13.9551 -10.7643 11.4572
14.1354 16.5730 -28.5513 -1.9192 -2.0799 -1.9510 0.0000 0.0000 0.0000 -12.5596 -2.5827 -18.4186 20.6055 19.9912 91.7706 0.0482 -2.9859 6.3041 0.2431 -3.1729 -8.7604 0.0000 0.0000 0.0000 28.5090 5.2643 -16.6165 -6.4551 -14.8554 46.7821 -1.1133 -7.4324 -23.9188 -0.1480 2.4793 -6.8322 1.2168 0.4456 12.1169 4.2333 1.0126 1.0148 3.6043 0.5189 -5.7952 -9.0109 -3.2824 -17.0551 4.3216 -3.0494 17.2158 2.5614 -1.5954 8.3784 -0.0000 -0.0000 0.0000 -93.6754 14.0008 37.0126 103.7948 -59.2686 -71.9173 -0.0000 0.0000 -21.6057 22.8392 9.0961 3.8093 -7.1250 0.0000 -0.0000 -3.5814 39.8106 0.4588 -0.0000 -0.0000 0.0000 76.5969 -8.7390 43.8163 -133.2110 51.6154 -96.3671 0.0000 -0.0000 -12.0191 -6.2535 20.5902 -2.2069 7.1250 -0.0000 -0.0000 14.1875 -9.7655 11.9580
14.1313 16.6001 -28.1778 -2.4275 -2.0658 -1.7600 0.0000 0.0000 0.0000 -11.4725 -2.6229 -21.2562 20.7247 19.9874 92.1192 0.0851 -3.0129 7.4620 0.0001 -0.0585 -0.1607 0.0000 0.0000 0.0000 29.2284 4.8491 -14.9600 -6.3065 -14.7189 46.1998 -1.2137 -7.6049 -24.8444 -0.1805 2.7368 -7.5469 1.8092 0.6794 12.1731 4.3318 1.4173 0.9090 3.3042 0.7046 -5.9496 -9.0848 -3.5312 -17.3215 4.4417 -3.3787 17.5821 2.5734 -1.7451 8.5770 -0.0000 0.0000 0.0000 -93.3533 14.9733 37.6257 104.6456 -59.1738 -72.6483 -0.0000 0.0000 -21.4561 22.9503 9.1920 3.8698 -7.1250 0.0000 -0.0000 -3.4956 39.9232 0.4381 -0.0000 0.0000 0.0000 76.4187 -8.0881 43.5227 -134.4885 51.0166 -97.3643 0.0000 -0.0000 -13.0966 -5.1985 23.5941 -2.0855 7.1250 -0.0000 -0.0000 14.8043 -6.9356 13.3742
14.1349 16.5741 -27.8193 -3.0225 -2.3561 -1.5136 0.0000 0.0000 0.0000 -10.3021 -2.1703 -23.8309 20.8193 19.9839 92.3962 -0.0723 -4.8537 2.7714 0.6291 -5.0753 -14.1235 0.0000 0.0000 0.0000 30.0517 4.8422 -13.3196 -6.1645 -14.5858 45.6383 -1.2831 -7.8831 -25.5755 -0.2152 2.9867 -8.2418 2.5203 0.9663 11.9428 4.3984 1.8870 0.9010 2.8933 0.9177 -5.8306 -9.2691 -3.6717 -17.4462 4.8698 -3.5989 17.4776 2.7201 -1.8134 8.5908 0.0000 0.0000 0.0000 -92.9014 15.8407 38.1757 105.8119 -59.0339 -73.6491 -0.0000 0.0000 -21.3871 22.6573 8.7915 3.6505 -7.1250 0.0000 -0.0000 -3.7047 39.4677 0.5059 0.0000 0.0000 0.0000 76.4122 -7.4397 43.4318 -135.9773 50.2806 -98.5156 0.0000 -0.0000 -14.4461 -4.2530 23.5094 -1.6992 7.1250 -0.0000 -0.0000 15.3791 -7.0924 13.8854
14.1439 16.5670 -27.4549 -3.2702 -2.4739 -1.2636 0.0000 0.0000 0.0000 -9.7594 -2.1681 -26.4414 20.7469 19.9866 92.1843 -0.0605 -4.4873 2.7773 0.1577 -2.5591 -7.0536 0.0000 0.0000 0.0000 30.4243 4.6300 -11.6781 -5.9866 -14.4154 44.9279 -1.3320 -8.1507 -26.1314 -0.2889 3.4566 -9.5527 2.9656 1.2888 11.6758 4.3630 2.3548 0.9329 2.5298 1.1369 -5.6438 -9.4462 -3.9007 -17.9785 5.3220 -3.9167 17.7164 2.8608 -1.9225 8.8039 0.0000 0.0000 0.0000 -92.2878 16.3503 39.0390 106.8283 -58.9024 -74.5200 -0.0000 0.0000 -21.5524 22.1402 8.1801 3.3133 -7.1250 0.0000 -0.0000 -4.0826 38.7709 0.6277 0.0000 0.0000 0.0000 76.3508 -6.8351 43.1923 -137.2859 49.5982 -99.5173 0.0000 -0.0000 -15.7488 -4.3517 23.3534 -1.7278 7.1250 -0.0000 -0.0000 15.3214 -7.2352 13.7849
